# xmcd
#
# Track frame offsets: 
#        150
#        42292
#        55475
#        72064
#        88123
#        109401
#        132552
#        148920
#        175275
#        188115
#
# Disc length: 2737 seconds
#
# Revision: 0
# Processed by: cddbd v1.5.2PL0 Copyright (c) Steve Scherf et al.
# Submitted via: ExactAudioCopy v0.95b3
#
DISCID=9b0aaf0a
DTITLE=Fleetwood Mac  - The Best Of - 70's German Vinyl Rip  FLAC
DYEAR=1900
DGENRE=
TTITLE0=Oh Well
TTITLE1=Dragon Fly
TTITLE2=Rattlesnake Shake
TTITLE3=World In Harmony
TTITLE4=The Green Manalishi
TTITLE5=Searching For Madge
TTITLE6=Before The Beginning
TTITLE7=The Purple Dancer
TTITLE8=Fighting For Maadge
TTITLE9=Coming Your Way
EXTD=
EXTT0=
EXTT1=
EXTT2=
EXTT3=
EXTT4=
EXTT5=
EXTT6=
EXTT7=
EXTT8=
EXTT9=
PLAYORDER=
